<?xml version="1.0" encoding="UTF-8" standalone="no"?>
<!-- Created with Inkscape (http://www.inkscape.org/) -->

<svg
   xmlns:dc="http://purl.org/dc/elements/1.1/"
   xmlns:cc="http://creativecommons.org/ns#"
   xmlns:rdf="http://www.w3.org/1999/02/22-rdf-syntax-ns#"
   xmlns:svg="http://www.w3.org/2000/svg"
   xmlns="http://www.w3.org/2000/svg"
   xmlns:sodipodi="http://sodipodi.sourceforge.net/DTD/sodipodi-0.dtd"
   xmlns:inkscape="http://www.inkscape.org/namespaces/inkscape"
   width="76.026237mm"
   height="81.975197mm"
   viewBox="0 0 76.026237 81.975197"
   version="1.1"
   id="svg5820"
   inkscape:version="0.92.3 (2405546, 2018-03-11)"
   sodipodi:docname="logo-icono.svg">
  <defs
     id="defs5814">
	

		
		
		
		
	</defs>
  <sodipodi:namedview
     id="base"
     pagecolor="#ffffff"
     bordercolor="#666666"
     borderopacity="1.0"
     inkscape:pageopacity="0.0"
     inkscape:pageshadow="2"
     inkscape:zoom="0.7"
     inkscape:cx="498.37087"
     inkscape:cy="126.13737"
     inkscape:document-units="mm"
     inkscape:current-layer="g3760"
     showgrid="false"
     fit-margin-top="0"
     fit-margin-left="0"
     fit-margin-right="-0.3"
     fit-margin-bottom="0"
     inkscape:window-width="1366"
     inkscape:window-height="705"
     inkscape:window-x="-8"
     inkscape:window-y="-8"
     inkscape:window-maximized="1" />
  <metadata
     id="metadata5817">
    <rdf:RDF>
      <cc:Work
         rdf:about="">
        <dc:format>image/svg+xml</dc:format>
        <dc:type
           rdf:resource="http://purl.org/dc/dcmitype/StillImage" />
        <dc:title></dc:title>
      </cc:Work>
    </rdf:RDF>
  </metadata>
  <g
     inkscape:label="Capa 1"
     inkscape:groupmode="layer"
     id="layer1"
     transform="translate(-52.93184,-105.26637)">
    <g
       id="g7760"
       transform="translate(11.325855,27.031816)">
      <g
         id="g6443"
         transform="matrix(0.10592728,0,0,0.10592728,69.501783,124.74349)">
        <g
           id="g6441" />
      </g>
      <g
         id="g3584"
         transform="matrix(1.0373521,0,0,1.0373521,252.64511,243.26554)">
</g>
      <g
         id="g3586"
         transform="matrix(1.0373521,0,0,1.0373521,252.64511,243.26554)">
</g>
      <g
         id="g3588"
         transform="matrix(1.0373521,0,0,1.0373521,252.64511,243.26554)">
</g>
      <g
         id="g3590"
         transform="matrix(1.0373521,0,0,1.0373521,252.64511,243.26554)">
</g>
      <g
         id="g3592"
         transform="matrix(1.0373521,0,0,1.0373521,252.64511,243.26554)">
</g>
      <g
         id="g3594"
         transform="matrix(1.0373521,0,0,1.0373521,252.64511,243.26554)">
</g>
      <g
         id="g3596"
         transform="matrix(1.0373521,0,0,1.0373521,252.64511,243.26554)">
</g>
      <g
         id="g3598"
         transform="matrix(1.0373521,0,0,1.0373521,252.64511,243.26554)">
</g>
      <g
         id="g3600"
         transform="matrix(1.0373521,0,0,1.0373521,252.64511,243.26554)">
</g>
      <g
         id="g3602"
         transform="matrix(1.0373521,0,0,1.0373521,252.64511,243.26554)">
</g>
      <g
         id="g3604"
         transform="matrix(1.0373521,0,0,1.0373521,252.64511,243.26554)">
</g>
      <g
         id="g3606"
         transform="matrix(1.0373521,0,0,1.0373521,252.64511,243.26554)">
</g>
      <g
         id="g3608"
         transform="matrix(1.0373521,0,0,1.0373521,252.64511,243.26554)">
</g>
      <g
         id="g3610"
         transform="matrix(1.0373521,0,0,1.0373521,252.64511,243.26554)">
</g>
      <g
         id="g3612"
         transform="matrix(1.0373521,0,0,1.0373521,252.64511,243.26554)">
</g>
      <g
         id="g3760"
         transform="translate(-130.02381,-104.32143)">
        <g
           id="g3781"
           transform="translate(1.1339286,0.75595238)">
          <g
             transform="matrix(0.10872425,0,0,0.09985782,180.12537,214.2896)"
             id="g2141">
            <g
               id="g2139">
              <path
                 inkscape:connector-curvature="0"
                 d="m 546.82273,111.40979 c -21.556,-2.48 -41.537,-3.737 -59.347,-3.737 -74.245,0 -98.029,21.416 -110.809,32.923 l -2.052,1.833 c -9.394,8.263 -25.03,9.521 -33.534,9.536 l -7.2,0.008 -7.197,-0.008 c -8.496,-0.014 -24.131,-1.272 -33.522,-9.536 l -2.048,-1.833 c -12.78,-11.507 -36.576,-32.923 -110.817,-32.923 -17.819,0 -37.784,1.256 -59.348,3.737 -10.093,1.162 -18.047,10.496 -17.38,20.377 1.713,25.235 10.652,87.354 56.609,119.093 20.065,13.854 42.731,21.176 65.551,21.176 46.907,0 81.904,-30.36 89.163,-77.332 0.104,-0.629 2.733,-15.362 18.089,-15.362 l 1.026,0.014 0.793,-0.014 c 15.356,0 17.977,14.733 18.085,15.339 7.262,46.995 42.258,77.355 89.161,77.355 22.822,0 45.484,-7.322 65.554,-21.176 45.953,-31.755 54.894,-93.857 56.608,-119.093 0.673,-9.881 -7.286,-19.222 -17.385,-20.377 z m -310.652,140.745 c -3.228,0.213 -6.344,0.305 -9.349,0.305 -25.626,0 -45.597,-7.313 -59.364,-21.772 -22.069,-23.15 -22.847,-58.853 -22.157,-73.125 0.118,-2.418 2.465,-5.714 4.751,-6.642 11.651,-4.757 34.989,-12.746 60.402,-12.746 10.361,0 20.079,1.356 28.879,4.042 36.53,11.146 52.121,27.198 52.121,53.699 0.008,28.572 -25.32,54.328 -55.283,56.239 z m 264.141,-21.468 c -13.762,14.459 -33.734,21.772 -59.346,21.772 -3.006,0 -6.127,-0.092 -9.354,-0.305 -29.959,-1.911 -55.282,-27.667 -55.282,-56.24 0,-26.501 15.585,-42.561 52.125,-53.699 8.792,-2.685 18.514,-4.042 28.877,-4.042 25.415,0 48.751,7.989 60.396,12.746 2.284,0.936 4.641,4.224 4.753,6.65 0.686,14.265 -0.092,49.951 -22.169,73.118 z"
                 id="path2137"
                 style="fill:#ffffff" />
            </g>
          </g>
          <path
             inkscape:connector-curvature="0"
             d="m 215.30994,195.37399 c -4.02538,0 -7.95365,0.75829 -11.67554,2.25425 -1.22026,0.49053 -1.81213,0.28971 -1.3216,1.50997 0.49054,1.22026 1.87696,0.2249 3.09748,-0.2659 3.15489,-1.26789 7.0149,-1.91082 10.42936,-1.91082 14.74946,0 29.39494,14.11605 29.39494,28.86551 v 22.89863 c 0,7.0914 -3.75732,11.05672 -9.03293,12.56862 -0.81613,0.23389 -2.61282,0.72486 -4.23075,0.82279 0,0 -0.56619,0.49686 0.0179,1.38665 0.24216,0.36893 0.84882,0.27133 1.39117,0.22191 7.44455,-0.75196 13.44213,-6.41179 13.44213,-13.94164 v -22.89863 c -2.8e-4,-17.37545 -14.13644,-31.51134 -31.51214,-31.51134 z m -16.201,67.97654 c 0,-0.66624 -0.002,-0.95686 -0.175,-1.08144 -0.16847,-0.12136 -0.49909,-0.0852 -1.14793,-0.0852 -2.86069,0 -6.33103,-1.46304 -8.90331,-3.53198 -2.00175,-1.61005 -3.60002,-6.10112 -3.59141,-8.24458 l 0.0945,-23.52229 c 0,-0.95965 0.0519,-1.92643 0.15426,-2.87338 0.14128,-1.30757 0.41593,-2.61568 -0.52414,-2.62334 -0.93065,-0.0907 -0.96764,1.29119 -1.03585,2.11164 -0.12059,1.11602 -0.18177,2.25504 -0.18177,3.38481 v 22.89863 c 0,7.71287 6.27486,13.98773 13.98773,13.98773 1.31525,2.6e-4 1.32292,-0.42063 1.32292,-0.42063 z"
             id="path2783"
             style="fill:#ffffff;stroke-width:0.26458332"
             sodipodi:nodetypes="scccsssscscscsscssssccccscssc" />
          <path
             style="fill:none;fill-opacity:1;stroke:#ffffff;stroke-width:1.60441446;stroke-linecap:round;stroke-miterlimit:4;stroke-dasharray:none;stroke-opacity:1"
             d="m 239.58862,232.75195 c 0,1.43173 -0.0178,7.87998 -0.28931,9.23594 -2.04555,10.21381 -11.86837,17.93175 -23.13972,17.93175 -11.43925,0 -21.37343,-7.9496 -23.22621,-18.38988 -0.21516,-1.21243 -0.0161,-7.97793 -0.0161,-9.24898"
             id="path3395"
             inkscape:connector-curvature="0"
             sodipodi:nodetypes="csssc" />
          <path
             sodipodi:nodetypes="cscc"
             inkscape:connector-curvature="0"
             id="path7096-0"
             d="m 208.79406,247.82409 c 5.63446,4.88621 10.0972,3.23373 12.49433,1.52714 1.2499,-0.88985 1.93822,-1.79441 1.93822,-1.79441 v 0"
             style="fill:none;stroke:#ffffff;stroke-width:1.46500015;stroke-linecap:round;stroke-linejoin:miter;stroke-miterlimit:4;stroke-dasharray:none;stroke-opacity:1" />
          <path
             sodipodi:nodetypes="cc"
             inkscape:connector-curvature="0"
             id="path7096-0-8"
             d="m 192.74959,226.25058 c 9.70703,1.20181 16.69582,-7.66896 15.96286,-16.8859"
             style="fill:none;stroke:#ffffff;stroke-width:1.46500015;stroke-linecap:round;stroke-linejoin:miter;stroke-miterlimit:4;stroke-dasharray:none;stroke-opacity:1" />
          <path
             sodipodi:nodetypes="cscc"
             inkscape:connector-curvature="0"
             id="path7096-0-8-7"
             d="m 208.71245,209.36468 c 1.2484,10.59407 18.07331,16.13809 22.46899,16.66799 2.29202,0.27628 3.97742,-0.007 3.97742,-0.007 v 0"
             style="fill:none;stroke:#ffffff;stroke-width:1.64900005;stroke-linecap:round;stroke-linejoin:miter;stroke-miterlimit:4;stroke-dasharray:none;stroke-opacity:1" />
          <g
             id="g3743"
             transform="translate(23.519718,24.588797)">
            <path
               style="fill:#ffffff;fill-opacity:1;stroke-width:6.5;stroke-miterlimit:4;stroke-dasharray:none"
               id="path3572"
               d="m 170.63149,186.31566 v 0 l -9.92172,-0.003 c -0.24106,0 -0.44496,-0.19606 -0.47355,-0.45747 -0.11529,-1.06018 -0.45544,-2.55708 -1.42827,-3.65771 -9.2e-4,-0.002 -0.002,-0.003 -0.004,-0.005 -2.40492,-2.21164 -3.78364,-5.43678 -3.78364,-8.859 9.2e-4,-6.39424 4.77934,-11.59656 10.65157,-11.59656 5.87224,0 10.65063,5.20232 10.65063,11.59656 0,3.44505 -1.39588,6.68989 -3.82939,8.90153 -0.93377,1.06432 -1.27392,2.56225 -1.38921,3.62347 -0.0266,0.26141 -0.23058,0.45747 -0.4726,0.45747 z m -9.50818,-1.04046 9.09466,0.003 c 0.17818,-1.1691 0.60981,-2.64731 1.62742,-3.80086 2.25436,-2.05291 3.52543,-5.00833 3.52543,-8.14529 -9.2e-4,-5.82161 -4.35058,-10.55817 -9.69876,-10.55817 -5.34817,0 -9.6978,4.73656 -9.6978,10.55921 0,3.13385 1.27011,6.08822 3.48637,8.10379 0.0286,0.0259 0.0543,0.056 0.0762,0.0882 0.98808,1.14524 1.41018,2.59753 1.58645,3.75003 z"
               inkscape:connector-curvature="0" />
            <g
               id="g3735">
              <path
                 inkscape:connector-curvature="0"
                 d="m 160.41062,187.83413 v 1.27546 c 0,0.70249 0.87196,1.27546 1.94107,1.27546 h 0.74812 c 0.28814,0.7324 1.28395,1.27547 2.48701,1.27547 1.20307,0 2.19888,-0.54307 2.487,-1.27547 h 0.74813 c 1.06912,0 1.94106,-0.57297 1.94106,-1.27546 v -1.27546 z"
                 id="path3478"
                 style="fill:none;stroke:#ffffff;stroke-width:0.86407274;stroke-linecap:round;stroke-linejoin:round;stroke-miterlimit:4;stroke-dasharray:none;stroke-opacity:1"
                 sodipodi:nodetypes="csscscsscc" />
              <rect
                 style="fill:#ffffff;fill-opacity:1;stroke:none;stroke-width:0.77035689;stroke-linejoin:round;stroke-miterlimit:4;stroke-dasharray:none;stroke-opacity:1"
                 id="rect3675"
                 width="1.5996834"
                 height="6.0476189"
                 x="111.77036"
                 y="189.92166"
                 ry="0.77353269"
                 transform="rotate(-13.928434)" />
              <rect
                 style="fill:#ffffff;fill-opacity:1;stroke:none;stroke-width:0.77035689;stroke-linejoin:round;stroke-miterlimit:4;stroke-dasharray:none;stroke-opacity:1"
                 id="rect3675-0"
                 width="1.5996834"
                 height="6.0476189"
                 x="-208.04459"
                 y="94.691383"
                 ry="0.77353269"
                 transform="rotate(-105.78894)" />
              <rect
                 style="fill:#ffffff;fill-opacity:1;stroke:none;stroke-width:0.77035689;stroke-linejoin:round;stroke-miterlimit:4;stroke-dasharray:none;stroke-opacity:1"
                 id="rect3675-4"
                 width="1.5996834"
                 height="6.0476189"
                 x="-94.601059"
                 y="198.90201"
                 ry="0.77353269"
                 transform="rotate(-67.212719)" />
            </g>
          </g>
        </g>
      </g>
    </g>
  </g>
</svg>
