<?xml version="1.0" encoding="UTF-8" standalone="no"?>
<!-- Created with Inkscape (http://www.inkscape.org/) -->

<svg
   xmlns:dc="http://purl.org/dc/elements/1.1/"
   xmlns:cc="http://creativecommons.org/ns#"
   xmlns:rdf="http://www.w3.org/1999/02/22-rdf-syntax-ns#"
   xmlns:svg="http://www.w3.org/2000/svg"
   xmlns="http://www.w3.org/2000/svg"
   xmlns:sodipodi="http://sodipodi.sourceforge.net/DTD/sodipodi-0.dtd"
   xmlns:inkscape="http://www.inkscape.org/namespaces/inkscape"
   width="146.51994mm"
   height="119.81335mm"
   viewBox="0 0 146.51994 119.81335"
   version="1.1"
   id="svg8"
   inkscape:version="0.92.3 (2405546, 2018-03-11)"
   sodipodi:docname="loguito2.svg">
  <defs
     id="defs2" />
  <sodipodi:namedview
     id="base"
     pagecolor="#ffffff"
     bordercolor="#666666"
     borderopacity="1.0"
     inkscape:pageopacity="0.0"
     inkscape:pageshadow="2"
     inkscape:zoom="0.35"
     inkscape:cx="-133.43929"
     inkscape:cy="-100.53181"
     inkscape:document-units="mm"
     inkscape:current-layer="text821"
     showgrid="false"
     fit-margin-top="0"
     fit-margin-left="0"
     fit-margin-right="0"
     fit-margin-bottom="0"
     inkscape:window-width="1366"
     inkscape:window-height="705"
     inkscape:window-x="-8"
     inkscape:window-y="-8"
     inkscape:window-maximized="1" />
  <metadata
     id="metadata5">
    <rdf:RDF>
      <cc:Work
         rdf:about="">
        <dc:format>image/svg+xml</dc:format>
        <dc:type
           rdf:resource="http://purl.org/dc/dcmitype/StillImage" />
        <dc:title />
      </cc:Work>
    </rdf:RDF>
  </metadata>
  <g
     inkscape:label="Capa 1"
     inkscape:groupmode="layer"
     id="layer1"
     transform="translate(-24.438998,-34.291342)">
    <g
       aria-label="Lore  "
       transform="matrix(0.86595389,0,0,1.1547959,37.041667,8.6934524)"
       style="font-style:normal;font-variant:normal;font-weight:normal;font-stretch:normal;font-size:76.29652405px;line-height:1.25;font-family:Quick;-inkscape-font-specification:Quick;letter-spacing:0px;word-spacing:0px;fill:#000000;fill-opacity:1;stroke:none;stroke-width:4.40172243"
       id="text817">
      <path
         d="m 61.63125,22.166592 h 0.819592 l 1.34115,0.223525 v 0.819592 q 0,1.639183 -4.843041,7.786119 Q 41.40224,66.648062 16.590968,100.9964 l -7.2645612,8.82924 h 0.2607791 q 20.4152811,-4.50776 48.5794271,-4.50776 38.371787,0 59.010597,6.70575 0.0373,0.48431 0.4843,0.48431 -0.22352,0.55881 -0.22352,0.85684 h -4.28423 l -1.34115,-0.29803 v -0.81959 h 0.4843 v -0.22353 q -20.676059,-5.3646 -55.210667,-5.3646 -29.281772,0 -49.6225443,5.3646 -12.2193652,13.8958 -17.2114229,13.8958 h -1.5646748 q -2.272504,0 -3.241112,-3.46463 0,-4.24698 12.8526858,-9.38805 7.5625949,-2.34701 8.046899,-2.94308 Q 7.0166487,108.89428 14.392973,99.953283 29.369146,79.053698 38.831703,62.885391 48.778564,45.450443 59.768542,24.290079 61.1842,22.166592 61.63125,22.166592 Z M -11.871211,122.75283 q 0.447049,1.82545 1.639183,1.82545 5.364599,-1.67643 13.6722772,-11.51153 H 3.17947 q -15.050681,5.14107 -15.050681,9.68608 z"
         style="font-style:normal;font-variant:normal;font-weight:normal;font-stretch:normal;font-family:'Taken by Vultures Demo';-inkscape-font-specification:'Taken by Vultures Demo';stroke-width:4.40172243;fill:#000000"
         id="path2110"
         inkscape:connector-curvature="0" />
      <path
         d="m 41.476749,76.855702 q 1.415658,0 1.862708,2.6823 0,0.186271 -0.782337,3.76267 2.235249,-0.782337 5.066566,-3.464637 0.521558,-0.298033 1.08037,-0.298033 0.558813,0.298033 0.819592,0.298033 v 0.484304 q -3.725416,4.321483 -8.046899,4.321483 0,1.005862 -2.160741,2.384266 H 36.894487 Q 35.85137,86.579038 35.85137,85.200634 v -0.298033 q 0,-4.694024 4.02345,-7.748866 z m -0.558812,2.421521 v 1.043116 h 0.298033 v -1.043116 z m -0.26078,1.341149 v 1.043117 h 0.26078 v -1.043117 z m -2.42152,1.601929 -0.260779,2.6823 v 0.782337 h 0.260779 q 1.005862,-0.484304 1.34115,-1.601928 -0.149017,0 -1.34115,-1.862709 z"
         style="font-style:normal;font-variant:normal;font-weight:normal;font-stretch:normal;font-family:'Taken by Vultures Demo';-inkscape-font-specification:'Taken by Vultures Demo';stroke-width:4.40172243;fill:#000000"
         id="path2112"
         inkscape:connector-curvature="0" />
      <path
         d="m 50.34324,72.683236 h 0.260779 q 2.421521,0 2.421521,2.6823 -0.782338,1.788199 -0.782338,2.458774 1.564675,1.043117 1.899963,1.043117 v 1.080371 q 0,0.558812 -0.856846,2.682299 h 0.298033 q 5.364599,-3.76267 6.146937,-3.76267 h 0.260779 q 0.558812,0.07451 0.558812,0.521558 v 0.558813 q -4.507753,4.284228 -7.264561,4.284228 h -0.484304 q -1.899963,0 -1.899963,-1.601929 0.782338,-2.570537 0.782338,-2.980333 l -0.521558,-0.260779 q -5.066567,8.866491 -7.264562,13.672278 h -1.601929 q -0.521558,0 -0.521558,-0.484305 2.458774,-5.923411 7.488086,-14.752648 -0.782337,0 -1.34115,-2.458774 v -1.080371 q 0.968609,-1.601929 2.421521,-1.601929 z m -0.223525,2.458775 0.484304,0.223525 v -0.782338 q -0.484304,0.03725 -0.484304,0.558813 z"
         style="font-style:normal;font-variant:normal;font-weight:normal;font-stretch:normal;font-family:'Taken by Vultures Demo';-inkscape-font-specification:'Taken by Vultures Demo';stroke-width:4.40172243;fill:#000000"
         id="path2114"
         inkscape:connector-curvature="0" />
      <path
         d="m 63.791993,75.924348 h 0.484304 q 2.197996,0.223525 2.197996,1.899962 0,1.452913 -5.923412,3.166604 -1.34115,2.905825 -1.34115,3.76267 h 0.260779 q 3.241112,-0.223525 8.829237,-5.10382 h 0.856845 q 0.484304,0.07451 0.484304,0.558813 v 0.521558 q -5.364599,5.364599 -9.388048,5.364599 h -1.564675 q -1.899963,0 -1.899963,-1.564675 0,-1.452912 1.34115,-3.241112 l -0.260779,-0.558812 v -0.521558 q 0.558813,0 4.02345,-3.725417 z m -1.080371,2.6823 h 0.223525 l 1.117625,-1.080371 q -1.229387,0.521558 -1.34115,1.080371 z"
         style="font-style:normal;font-variant:normal;font-weight:normal;font-stretch:normal;font-family:'Taken by Vultures Demo';-inkscape-font-specification:'Taken by Vultures Demo';stroke-width:4.40172243;fill:#000000"
         id="path2116"
         inkscape:connector-curvature="0" />
    </g>
    <g
       aria-label="Reyes"
       transform="matrix(0.96231859,0,0,1.0391569,24.568453,13.607143)"
       style="font-style:normal;font-variant:normal;font-weight:normal;font-stretch:normal;font-size:62.4086113px;line-height:1.25;font-family:Quick;-inkscape-font-specification:Quick;letter-spacing:0px;word-spacing:0px;fill:#000000;fill-opacity:1;stroke:none;stroke-width:3.60049653"
       id="text821">
      <path
         d="m 131.45515,34.739226 h 1.09703 c 3.39265,0 5.72891,1.330652 7.00878,3.991957 0.30473,0.99545 0.45709,1.858851 0.45709,2.590202 0,4.428736 -3.37234,9.334882 -10.11702,14.718437 -2.33626,1.68617 -5.69844,3.148872 -10.08655,4.388105 -5.58671,1.157973 -10.11702,1.736959 -13.59094,1.736959 l -0.85324,0.243783 c 2.82383,5.911753 8.52227,15.05364 17.09533,27.42566 6.82594,9.81229 13.69251,18.659611 20.59972,26.541941 1.03608,0.73135 1.69633,1.09703 1.98074,1.09703 0,-0.30473 0.43678,-0.5282 1.31033,-0.67041 0.58915,0.24379 0.88372,0.46726 0.88372,0.67041 -0.22347,0.73135 -0.73135,1.09703 -1.52365,1.09703 h -1.31033 c -2.35658,-0.30473 -7.26273,-5.57656 -14.71844,-15.81547 -9.97481,-12.493911 -18.59866,-25.424601 -25.87154,-38.79207 l -1.09703,-2.194053 0.63994,-0.457094 c 10.68585,0 19.46206,-2.346418 26.32863,-7.039253 5.42419,-5.05851 8.13628,-9.507561 8.13628,-13.347154 0,-2.986349 -2.10603,-3.773343 -5.92531,-4.179649 h -0.63993 c -4.46937,0 -10.82807,1.340362 -17.8978,7.658421 -5.22103,5.424186 -13.22539,12.518073 -16.943088,18.917393 -4.570943,8.34959 -5.369857,19.199419 -11.037826,33.095086 -0.385991,0.568829 -0.904031,0.853243 -1.554121,0.853243 h -0.639932 c -0.142207,0 -0.426622,-0.284414 -0.853243,-0.853243 0,-1.950269 4.181549,-14.294243 13.526589,-37.941256 l 5.339381,-10.908572 1.09703,-0.213311 h 0.63993 c 0.24378,0 0.46725,0.30473 0.67041,0.914189 0,1.300179 -0.43678,1.950269 -1.31034,1.950269 -4.550626,9.934183 -4.939826,10.77895 -10.79064,25.995112 v 0.21331 h 0.243783 c -0.833075,-2.223181 -0.748581,-11.721033 8.599987,-22.764753 2.23469,-3.169187 7.76731,-8.229117 11.68816,-11.906187 6.58215,-5.586709 14.29865,-7.016062 19.41811,-7.016062 z M 91.291799,76.670012 c 0,0.243784 -0.142207,0.609459 -0.426621,1.097026 v 0.213311 h 0.243783 c 0,-0.264099 0.13205,-0.629774 0.396149,-1.097026 v -0.213311 z"
         style="font-style:normal;font-variant:normal;font-weight:normal;font-stretch:normal;font-family:'Taken by Vultures Demo';-inkscape-font-specification:'Taken by Vultures Demo';stroke-width:3.60049653;fill:#000000"
         id="path2119"
         inkscape:connector-curvature="0"
         sodipodi:nodetypes="sscscccccccccsccccccscscccssccccscccccccsccccccc" />
      <path
         d="m 123.11243,67.339463 h 0.39615 q 1.79791,0.182837 1.79791,1.55412 0,1.188446 -4.8452,2.590201 -1.09703,2.376891 -1.09703,3.077769 h 0.21331 q 2.65115,-0.182838 7.22209,-4.174795 h 0.70088 q 0.39615,0.06095 0.39615,0.457094 v 0.426622 q -4.38811,4.388105 -7.67919,4.388105 h -1.27986 q -1.55412,0 -1.55412,-1.279864 0,-1.188445 1.09702,-2.651147 l -0.21331,-0.457094 v -0.426622 q 0.4571,0 3.29108,-3.047295 z m -0.88371,2.194052 h 0.18284 l 0.91418,-0.883715 q -1.0056,0.426621 -1.09702,0.883715 z"
         style="font-style:normal;font-variant:normal;font-weight:normal;font-stretch:normal;font-family:'Taken by Vultures Demo';-inkscape-font-specification:'Taken by Vultures Demo';stroke-width:3.60049653;fill:#000000"
         id="path2121"
         inkscape:connector-curvature="0" />
      <path
         d="m 133.04662,68.070814 c 0.30473,0.02031 0.45709,0.152363 0.45709,0.396148 v 0.243784 l -6.75106,14.858261 c 0.28441,0 0.42662,0.21331 0.42662,0.63993 -0.42662,0.914187 -1.08687,1.71664 -1.98074,2.40736 h -0.85324 c -0.30474,0 -0.4571,-0.223467 -0.4571,-0.6704 1.39794,-4.284258 3.35543,-5.923292 5.86735,-12.633735 h -0.21331 c -0.7923,1.076711 -1.81822,1.950269 -3.07777,2.620674 h -1.73696 c -0.20315,0 -0.42662,-0.294572 -0.67041,-0.883716 0.91419,-2.762881 1.79791,-4.509997 2.65115,-5.241348 h 1.09703 v 0.457094 l -1.73696,4.388106 c 0.79229,-0.487567 2.90508,-2.68162 6.33837,-6.582158 z"
         style="font-style:normal;font-variant:normal;font-weight:normal;font-stretch:normal;font-family:'Taken by Vultures Demo';-inkscape-font-specification:'Taken by Vultures Demo';stroke-width:3.60049653;fill:#000000"
         id="path2123"
         inkscape:connector-curvature="0"
         sodipodi:nodetypes="csccccsccccsccccccc" />
      <path
         d="m 137.98324,67.339463 h 0.39615 q 1.7979,0.182837 1.7979,1.55412 0,1.188446 -4.8452,2.590201 -1.09703,2.376891 -1.09703,3.077769 h 0.21331 q 2.65115,-0.182838 7.22209,-4.174795 h 0.70088 q 0.39615,0.06095 0.39615,0.457094 v 0.426622 q -4.3881,4.388105 -7.67918,4.388105 h -1.27987 q -1.55412,0 -1.55412,-1.279864 0,-1.188445 1.09703,-2.651147 l -0.21331,-0.457094 v -0.426622 q 0.45709,0 3.29108,-3.047295 z m -0.88372,2.194052 h 0.18284 l 0.91419,-0.883715 q -1.00561,0.426621 -1.09703,0.883715 z"
         style="font-style:normal;font-variant:normal;font-weight:normal;font-stretch:normal;font-family:'Taken by Vultures Demo';-inkscape-font-specification:'Taken by Vultures Demo';stroke-width:3.60049653;fill:#000000"
         id="path2125"
         inkscape:connector-curvature="0" />
      <path
         d="m 143.34647,66.18149 h 0.85325 q 1.55412,0 1.55412,1.523648 0,0.731351 -2.86446,3.108241 0.73135,0.82277 1.31034,3.473917 1.55412,0 6.58216,-3.931011 h 0.88371 q 0.4571,0.03047 0.4571,0.457094 v 0.182838 q -3.80912,3.565336 -8.13628,4.8452 -0.63994,1.736958 -2.62068,1.736958 H 140.0554 V 76.69466 q 0.73135,-1.097027 2.40736,-1.950269 0,-1.188446 -1.95027,-5.028038 v -0.700878 q 0.67041,-2.833985 2.83398,-2.833985 z m -1.09702,3.077769 q 1.37128,-0.82277 1.73696,-1.980742 h -0.18284 q -1.55412,0.639932 -1.55412,1.980742 z"
         style="font-style:normal;font-variant:normal;font-weight:normal;font-stretch:normal;font-family:'Taken by Vultures Demo';-inkscape-font-specification:'Taken by Vultures Demo';stroke-width:3.60049653;fill:#000000"
         id="path2127"
         inkscape:connector-curvature="0" />
    </g>
  </g>
</svg>
