<?xml version="1.0" encoding="UTF-8" standalone="no"?>
<!-- Created with Inkscape (http://www.inkscape.org/) -->

<svg
   xmlns:dc="http://purl.org/dc/elements/1.1/"
   xmlns:cc="http://creativecommons.org/ns#"
   xmlns:rdf="http://www.w3.org/1999/02/22-rdf-syntax-ns#"
   xmlns:svg="http://www.w3.org/2000/svg"
   xmlns="http://www.w3.org/2000/svg"
   xmlns:sodipodi="http://sodipodi.sourceforge.net/DTD/sodipodi-0.dtd"
   xmlns:inkscape="http://www.inkscape.org/namespaces/inkscape"
   width="80.43634mm"
   height="91.465256mm"
   viewBox="0 0 80.43634 91.465256"
   version="1.1"
   id="svg5820"
   inkscape:version="0.92.3 (2405546, 2018-03-11)"
   sodipodi:docname="woman-thinking.svg">
  <defs
     id="defs5814" />
  <sodipodi:namedview
     id="base"
     pagecolor="#ffffff"
     bordercolor="#666666"
     borderopacity="1.0"
     inkscape:pageopacity="0.0"
     inkscape:pageshadow="2"
     inkscape:zoom="0.98994949"
     inkscape:cx="171.07385"
     inkscape:cy="64.008133"
     inkscape:document-units="mm"
     inkscape:current-layer="g7760"
     showgrid="false"
     fit-margin-top="0"
     fit-margin-left="0"
     fit-margin-right="-0.3"
     fit-margin-bottom="0"
     inkscape:window-width="1366"
     inkscape:window-height="705"
     inkscape:window-x="-8"
     inkscape:window-y="-8"
     inkscape:window-maximized="1" />
  <metadata
     id="metadata5817">
    <rdf:RDF>
      <cc:Work
         rdf:about="">
        <dc:format>image/svg+xml</dc:format>
        <dc:type
           rdf:resource="http://purl.org/dc/dcmitype/StillImage" />
        <dc:title></dc:title>
      </cc:Work>
    </rdf:RDF>
  </metadata>
  <g
     inkscape:label="Capa 1"
     inkscape:groupmode="layer"
     id="layer1"
     transform="translate(-52.346927,-102.28053)">
    <g
       id="g7760"
       transform="translate(7.2385306,8.73335)">
      <path
         style="stroke:none;stroke-width:0.99999994;fill:#ffffff"
         d="m 14.517578,1.6757812 c -1.899531,2.2512873 0.692219,4.482339 3.145404,7.818756 l 8.929688,8.8339838 c 4.805779,4.661575 7.793265,2.238084 7.793265,2.238084 0,0 2.098409,-2.496487 -2.925286,-6.642876 L 22.530962,5.0897447 C 19.379402,2.076646 16.22714,-0.83405871 14.517578,1.6757812 Z M 82.612112,6.737885 c -22.78557,0 -42.438407,20.880461 -40.81719,42.656646 0.641391,8.615159 7.444564,24.738365 11.590033,29.684368 2.984429,3.561978 2.577936,3.167796 2.577936,8.684773 0,4.971023 4.021773,7.232233 8.672459,7.232233 h 37.46875 c 4.65066,0 8.16738,-2.26121 8.16738,-7.232233 0,-5.516977 -0.4055,-6.890562 2.57989,-10.45254 4.14547,-4.946003 11.39188,-17.025566 10.83243,-28.421677 C 122.68756,28.595961 105.3986,6.7378852 82.612112,6.737885 Z m 0.676167,6.119358 c 18.690741,0.23176 34.540611,19.310987 34.540611,33.741979 0,9.060019 -3.62316,21.314527 -6.95098,25.285525 -2.62705,3.135005 -6.2161,10.078891 -7.87206,16.687887 L 64.165431,88.42498 c -1.65597,-6.608996 -6.253214,-12.912843 -8.880265,-16.047848 -3.32781,-3.969978 -7.293158,-15.706755 -7.293158,-24.767757 0,-14.430992 14.752212,-37.223402 35.296271,-34.752132 z M 6.8169912,36.899895 c -3.8041832,-0.01411 -6.92426759,0.18906 -6.94326027,3.286237 -0.0265103,4.323089 4.14174887,3.267209 8.79052967,3.407429 l 11.8378914,0.357422 c 4.647859,0.14022 7.989561,0.126322 8.175582,-3.659967 0.133705,-2.721435 -3.686571,-2.858325 -8.335352,-2.998542 L 8.5064443,36.935052 C 7.925347,36.917519 7.360446,36.901911 6.8169912,36.899895 Z M 184.44922,50.402344 c -15.214,0 -30.06191,2.8675 -44.12891,8.521484 -4.612,1.85401 -5.98563,2.425113 -4.13164,7.037119 1.85401,4.612006 5.4993,1.085479 10.1123,-0.769513 11.924,-4.791987 32.06373,-7.3877 44.96873,-7.3877 55.746,0 108.7601,59.546136 107.1371,115.268536 l -2.5,85.83258 c -0.25058,8.66922 4.31623,29.55332 -1.37193,36.53879 -6.92137,8.49993 -30.44043,3.3284 -40.99302,3.3284 -4.97102,0 -9.71456,0.099 -9.71456,5.07004 0,4.97102 1.88528,5.07198 6.8563,5.07198 16.59716,0 40.71853,3.02578 50.41797,-8.97656 7.33595,-9.07767 2.44922,-31.33741 2.44922,-43.89062 V 169.5 C 303.54976,103.82897 250.12121,50.402344 184.44922,50.402344 Z M 29.95038,59.191208 c -3.217527,-2.408536 -7.294993,0.784374 -9.017174,3.524608 l -9.593362,10.071293 c -3.287536,3.514999 -0.394532,6.3461 -0.394532,6.3461 0,0 2.702952,3.131464 6.77774,-1.249802 L 28.324615,66.549423 c 3.783525,-4.024798 1.625765,-7.358215 1.625765,-7.358215 z m 38.426573,41.980672 c -3.955208,-0.0395 -7.319899,0.13694 -7.40625,5.48046 0,0 1.530044,5.07852 8.419922,5.46289 l 4.527344,0.25391 c -0.01776,0.21695 -0.02148,0.43619 -0.02148,0.6582 h -0.002 c 0.751782,3.63171 4.353251,6.32227 9.003907,6.32227 h 0.267578 c 4.650693,0 7.418269,-4.20841 7.835937,-6.32227 0.04278,-0.21694 -0.0075,-0.4402 -0.02148,-0.6582 h 4.763672 c 7.013287,0 9.128907,-0.74581 9.128907,-5.7168 0,-4.97098 -3.53294,-5.46484 -8.183595,-5.46484 H 70.099609 c -0.581336,0 -1.157626,-0.01 -1.722656,-0.0156 z m 85.249447,32.44531 c -2.68161,1.38947 -4.37835,4.79883 -4.37835,4.79883 -0.703,2.46999 -3.01875,8.98218 -5.34375,14.74218 -0.49801,1.233 -0.92846,2.34953 -1.31446,3.35352 -0.14498,-0.0608 -0.28962,-0.12155 -0.43164,-0.18164 l -0.92382,-0.38867 c -4.479,-1.87499 -8.52335,-4.05452 -12.02735,-6.47852 -0.437,-0.32088 -0.91011,-0.60467 -1.41211,-0.84766 -0.669,-0.3239 -1.36431,-0.55902 -2.07031,-0.70703 -1.753,-0.37001 -3.529,-0.19717 -5.125,0.42774 -0.873,0.34015 -1.69845,0.8197 -2.43945,1.42968 -0.94001,0.77099 -1.73455,1.7409 -2.31055,2.87891 -6.47025,5.93006 -13.78093,17.25841 -17.486329,26.21875 -3.648853,0.833 -6.401339,4.32893 -6.152343,8.01758 0.174382,2.56896 0.54057,6.09903 1.285156,10.13476 -1.69591,7.68231 -1.136624,16.37412 -1.095703,23.13282 0.08103,13.3838 2.872002,22.56871 8.701169,37.52148 5.13398,14.3281 15.1968,24.46983 30.14258,33.18164 11.615,6.77099 32.22207,14.29871 50.92578,14.67383 24.47599,-0.69725 42.3355,-8.55518 58.38281,-18.30859 22.21009,-18.57717 35.10853,-34.51597 34.03711,-60.54297 -0.48722,-5.87797 -0.78756,-14.16816 -2.22265,-21.00391 1.58477,-6.27615 4.01438,-15.11861 4.26367,-18.78906 0.26944,-3.95591 -2.91775,-7.69579 -6.96094,-8.1582 -1.59672,-0.18371 -3.14718,-0.33233 -4.69922,-0.48243 -3.74114,-7.07109 -7.52421,-13.08385 -9.05468,-16.65039 -0.59702,-1.18499 -1.42903,-2.18853 -2.41602,-2.97656 -0.69203,-0.55298 -1.45476,-0.99442 -2.25977,-1.3164 -1.61797,-0.65201 -3.43088,-0.83698 -5.21289,-0.45899 -0.69501,0.14589 -1.38006,0.37645 -2.03906,0.69336 -0.51299,0.24605 -0.9925,0.53338 -1.4375,0.85937 -13.14898,9.09699 -39.58559,-11.76371 -61.43359,-11.7207 -4.971,0.0113 -7.921,1.18945 -7.91099,6.16044 0.01,4.96501 7.21539,2.01674 7.21539,2.01674 l 3.94727,0.17969 c 20.47899,-0.0408 48.60165,16.89163 63.78265,9.45061 0,0 7.28801,10.26765 9.22237,13.29966 -2.59309,-0.11394 -9.05917,-0.5505 -11.46372,-0.5505 -29.72437,0 -39.24678,8.57476 -44.36328,13.18164 l -0.82032,0.73438 c -3.76093,3.30813 -10.02116,3.8104 -13.42578,3.8164 l -2.88281,0.004 -2.88086,-0.004 c -3.40142,-0.006 -9.66214,-0.50787 -13.42188,-3.8164 l -0.82031,-0.73438 c -5.11654,-4.60688 -14.64247,-13.18164 -44.36523,-13.18164 -3.56577,0 -12.70388,0.84154 -16.6716,1.09125 2.49828,-9.10126 7.31399,-17.27362 15.58873,-24.30664 0,0 12.27611,8.15257 14.03711,8.8895 l 0.90625,0.38086 c 6.033,2.53697 8.06989,0.61986 11.48075,-1.87723 3.22833,-2.85551 4.06522,-10.49086 7.21763,-21.45368 1.36,-4.78099 2.02149,-7.19085 2.02149,-7.19085 -0.89681,-0.255 -3.14119,0.86643 -3.88365,0.85742 z m -81.589291,14.47265 c -4.22593,0.0309 -5.499376,3.98212 -6,8.61524 -0.456,4.21803 -0.6875,8.52297 -0.6875,12.79297 v 86.54687 c 0,14.1913 -12.235459,34.23814 -3.103515,43.74414 9.626419,10.02078 41.010986,9.12305 55.970706,9.12305 4.971,0.001 6.5,-1.17156 6.5,-6.14258 0,-4.97102 -20.21274,-2.59305 -25.071706,-3.64229 -17.429526,1.13511 -25.289877,1.34515 -30.375005,-5.52233 -5.507123,-7.43724 3.891542,-26.13519 3.722378,-36.12974 l -0.356306,-77.61858 c 0.396948,-3.67365 0.235297,-10.90381 4.562785,-26.30876 0.740784,-2.63704 -3.008715,-5.27406 -4.277071,-5.41111 -0.308625,-0.0337 -0.603037,-0.0489 -0.884766,-0.0469 z M 233.8418,189.4375 c 10.17502,0 19.51755,3.19903 24.17968,5.10352 0.91442,0.37473 1.85751,1.69087 1.90235,2.6621 0.27464,5.71107 -0.0364,19.99842 -8.875,29.27344 -5.50969,5.78874 -13.50587,8.7168 -23.75977,8.7168 -1.20346,0 -2.45219,-0.0378 -3.74414,-0.12305 -11.99424,-0.76508 -22.13281,-11.07628 -22.13281,-22.51562 0,-10.60981 6.24017,-17.03889 20.86914,-21.49805 3.51992,-1.07495 7.41167,-1.61914 11.56055,-1.61914 z m -98.83789,0.002 c 4.14808,0 8.03742,0.54184 11.56054,1.61719 14.62497,4.46236 20.86719,10.88824 20.86719,21.49805 0.003,11.43894 -10.13697,21.75054 -22.13281,22.51562 -1.29235,0.0853 -2.53912,0.12305 -3.74219,0.12305 -10.2595,0 -18.25589,-2.92806 -23.76758,-8.7168 -8.83543,-9.26822 -9.14734,-23.56152 -8.87109,-29.27539 0.0472,-0.96806 0.98713,-2.28862 1.90234,-2.66015 4.66454,-1.90449 14.00937,-5.10157 24.1836,-5.10157 z m 49.05273,16.48828 0.41211,0.006 0.31641,-0.006 c 6.14785,0 7.19699,5.89801 7.24023,6.14063 2.90738,18.81469 16.91941,30.9707 35.69727,30.9707 9.1369,0 18.20901,-2.93199 26.24414,-8.47851 6.57754,-4.5453 11.93127,-9.32259 15.26562,-15.74414 4.86512,38.28947 -24.16855,60.28055 -45.9707,72.98828 -11.45473,4.58763 -27.96508,8.54569 -41.25195,8.33203 -17.83833,-0.28687 -40.30439,-8.08738 -53.63868,-16.90234 -20.18381,-11.53505 -31.828636,-41.84893 -32.818356,-70.5625 3.17671,5.28787 13.790006,18.06796 19.322266,21.88867 8.03312,5.54652 17.10804,8.47851 26.24414,8.47851 18.77946,0 32.78914,-12.15546 35.69531,-30.96094 0.0416,-0.25179 1.09434,-6.15039 7.24219,-6.15039 z m -45.66378,102.5279 c -2.69514,13.16257 -4.5987,17.23002 -26.78656,23.01674 -3.59031,0.56631 -9.15133,2.19085 -6.3848,6.04943 1.44074,0.5139 4.55023,0.0368 7.77795,-1.22465 22.72914,-7.46311 24.46164,-6.78393 29.90764,-24.59292 1.452,-4.754 3.35703,-7.8302 -0.59235,-9.01534 -3.05627,0.78676 -2.90949,2.60164 -3.92188,5.76674 z m 84.74526,-4.11746 c -2.33414,1.22347 0.11795,4.39004 0.54715,6.80272 7.24593,16.44059 14.56293,20.51746 27.97589,23.26059 4.94818,0.85028 8.44526,2.31355 9.34474,-0.46453 -0.91068,-1.8762 -1.98538,-2.00157 -5.8463,-3.18081 -20.66466,-3.84933 -22.65026,-10.45516 -27.50195,-21.05273 -1.08975,-3.56327 -2.08267,-5.32161 -4.51953,-5.36524 z"
         transform="matrix(0.26458333,0,0,0.26458333,45.108396,93.54718)"
         id="path5223"
         inkscape:connector-curvature="0"
         sodipodi:nodetypes="cccccccsscsssscsscsccccsccsccscccscccsscsssscscscccccccccccccssccssssccccccccccccccccsccccccccccccccccsccccscccccccsccccccccccssccscccccscscccscscsscccscccsccccscccccccscccccccccccccccccc" />
      <g
         id="g6443"
         transform="matrix(0.10592728,0,0,0.10592728,69.501783,124.74349)">
        <g
           id="g6441" />
      </g>
      <path
         sodipodi:nodetypes="cscc"
         inkscape:connector-curvature="0"
         id="path7096"
         d="m 86.615653,162.37856 c 5.63446,4.88621 10.0972,3.23373 12.49433,1.52714 1.249897,-0.88985 1.938217,-1.79441 1.938217,-1.79441 v 0"
         style="fill:none;stroke:#ffffff;stroke-width:1.46500003;stroke-linecap:butt;stroke-linejoin:miter;stroke-miterlimit:4;stroke-dasharray:none;stroke-opacity:1" />
    </g>
  </g>
</svg>
